<svg xmlns="http://www.w3.org/2000/svg" viewBox="0 0 64 64">
  <path d="M45.5 8c-2.8 0-5.5 1.2-7.5 3.2C34 15 32 22 31 28c-1.2 7-1 13.5 1.5 19.5 2 4.8 5.5 8 10 8.5.8.1 1.5 0 2.2-.2 3-.8 5-3.5 5.8-7 1.5-6.5.5-15-2.5-22C45 20 41 13.5 41 11.5c0-1 .5-1.8 1.5-2.2 1.2-.5 2.5-.2 3.5.5.5.3 1 .2 1.3-.2.3-.5.2-1-.2-1.3C45.8 7.5 44.2 8 45.5 8z" fill="#D4B44C"/>
  <path d="M38 11.2C34 15 32 22 31 28c-1.2 7-1 13.5 1.5 19.5 2 4.8 5.5 8 10 8.5-3-.5-6.5-2.5-9-6.5-3-5-4.5-12-3.5-20 .8-6.5 3-12.5 6-17 .5-.8 1.2-1.5 2-2.3z" fill="#C4A43C" opacity=".6"/>
  <path d="M43 9.3c-1 .4-1.5 1.2-1.5 2.2 0 2 4 8.5 7 15.3.5 1.2 1 2.5 1.4 3.8.3-.2.5-.5.5-.8 0-2-3.5-8-6.2-14.2-1-2.3-1.5-4-1.2-5.3.1-.4 0-.7-.1-1z" fill="#BF9E36" opacity=".4"/>
</svg>
